<mxfile host="app.diagrams.net" modified="2021-06-19T06:46:13.488Z" agent="5.0 (Windows NT 10.0; WOW64) AppleWebKit/537.36 (KHTML, like Gecko) Chrome/68.0.3440.75 Safari/537.36" etag="FVH0zsDGiPpUFSH8MGhZ" version="14.6.11" type="github">
  <diagram name="Page-1" id="0783ab3e-0a74-02c8-0abd-f7b4e66b4bec">
    <mxGraphModel dx="1490" dy="588" grid="1" gridSize="10" guides="1" tooltips="1" connect="1" arrows="1" fold="1" page="1" pageScale="1" pageWidth="850" pageHeight="1100" background="#ffffff" math="0" shadow="0">
      <root>
        <mxCell id="0" />
        <mxCell id="1" parent="0" />
        <mxCell id="eFo7KCsxgfK4nvITvgJy-15" value="" style="swimlane;startSize=0;fillColor=#fff2cc;strokeColor=#d6b656;opacity=10;labelBackgroundColor=#FFFFFF;labelBorderColor=none;perimeterSpacing=1;swimlaneFillColor=none;" vertex="1" parent="1">
          <mxGeometry x="20" y="60" width="970" height="630" as="geometry" />
        </mxCell>
        <mxCell id="eFo7KCsxgfK4nvITvgJy-1" value="wms-web" style="rounded=1;whiteSpace=wrap;html=1;" vertex="1" parent="eFo7KCsxgfK4nvITvgJy-15">
          <mxGeometry x="40" y="20" width="120" height="50" as="geometry" />
        </mxCell>
        <mxCell id="eFo7KCsxgfK4nvITvgJy-10" value="" style="shape=cylinder3;whiteSpace=wrap;html=1;boundedLbl=1;backgroundOutline=1;size=15;" vertex="1" parent="eFo7KCsxgfK4nvITvgJy-15">
          <mxGeometry x="345" y="430" width="60" height="80" as="geometry" />
        </mxCell>
        <mxCell id="eFo7KCsxgfK4nvITvgJy-9" value="" style="shape=cylinder3;whiteSpace=wrap;html=1;boundedLbl=1;backgroundOutline=1;size=15;" vertex="1" parent="eFo7KCsxgfK4nvITvgJy-15">
          <mxGeometry x="190" y="430" width="60" height="80" as="geometry" />
        </mxCell>
        <mxCell id="eFo7KCsxgfK4nvITvgJy-16" value="" style="shape=cylinder3;whiteSpace=wrap;html=1;boundedLbl=1;backgroundOutline=1;size=15;" vertex="1" parent="eFo7KCsxgfK4nvITvgJy-15">
          <mxGeometry x="60" y="420" width="60" height="80" as="geometry" />
        </mxCell>
        <mxCell id="eFo7KCsxgfK4nvITvgJy-11" value="" style="shape=cylinder3;whiteSpace=wrap;html=1;boundedLbl=1;backgroundOutline=1;size=15;" vertex="1" parent="eFo7KCsxgfK4nvITvgJy-15">
          <mxGeometry x="490" y="430" width="60" height="80" as="geometry" />
        </mxCell>
        <mxCell id="eFo7KCsxgfK4nvITvgJy-12" value="" style="shape=cylinder3;whiteSpace=wrap;html=1;boundedLbl=1;backgroundOutline=1;size=15;" vertex="1" parent="eFo7KCsxgfK4nvITvgJy-15">
          <mxGeometry x="640" y="430" width="60" height="80" as="geometry" />
        </mxCell>
        <mxCell id="eFo7KCsxgfK4nvITvgJy-5" value="" style="rounded=1;whiteSpace=wrap;html=1;" vertex="1" parent="eFo7KCsxgfK4nvITvgJy-15">
          <mxGeometry x="160" y="170" width="120" height="210" as="geometry" />
        </mxCell>
        <mxCell id="eFo7KCsxgfK4nvITvgJy-6" value="" style="rounded=1;whiteSpace=wrap;html=1;" vertex="1" parent="eFo7KCsxgfK4nvITvgJy-15">
          <mxGeometry x="310" y="170" width="120" height="210" as="geometry" />
        </mxCell>
        <mxCell id="eFo7KCsxgfK4nvITvgJy-7" value="" style="rounded=1;whiteSpace=wrap;html=1;" vertex="1" parent="eFo7KCsxgfK4nvITvgJy-15">
          <mxGeometry x="470" y="170" width="110" height="210" as="geometry" />
        </mxCell>
        <mxCell id="eFo7KCsxgfK4nvITvgJy-18" value="redis" style="rounded=0;whiteSpace=wrap;html=1;" vertex="1" parent="eFo7KCsxgfK4nvITvgJy-15">
          <mxGeometry x="800" y="180" width="140" height="70" as="geometry" />
        </mxCell>
        <mxCell id="eFo7KCsxgfK4nvITvgJy-8" value="" style="rounded=1;whiteSpace=wrap;html=1;" vertex="1" parent="eFo7KCsxgfK4nvITvgJy-15">
          <mxGeometry x="620" y="170" width="120" height="210" as="geometry" />
        </mxCell>
        <mxCell id="eFo7KCsxgfK4nvITvgJy-19" value="nacos" style="rounded=0;whiteSpace=wrap;html=1;" vertex="1" parent="eFo7KCsxgfK4nvITvgJy-15">
          <mxGeometry x="800" y="290" width="140" height="70" as="geometry" />
        </mxCell>
        <mxCell id="eFo7KCsxgfK4nvITvgJy-13" value="" style="rounded=1;whiteSpace=wrap;html=1;" vertex="1" parent="eFo7KCsxgfK4nvITvgJy-15">
          <mxGeometry x="40" y="170" width="80" height="210" as="geometry" />
        </mxCell>
        <mxCell id="eFo7KCsxgfK4nvITvgJy-3" value="gate-way" style="rounded=1;whiteSpace=wrap;html=1;" vertex="1" parent="eFo7KCsxgfK4nvITvgJy-15">
          <mxGeometry x="40" y="90" width="710" height="50" as="geometry" />
        </mxCell>
        <mxCell id="eFo7KCsxgfK4nvITvgJy-4" value="oms-web" style="rounded=1;whiteSpace=wrap;html=1;" vertex="1" parent="eFo7KCsxgfK4nvITvgJy-15">
          <mxGeometry x="190" y="20" width="120" height="50" as="geometry" />
        </mxCell>
        <mxCell id="eFo7KCsxgfK4nvITvgJy-2" value="app" style="rounded=1;whiteSpace=wrap;html=1;" vertex="1" parent="eFo7KCsxgfK4nvITvgJy-15">
          <mxGeometry x="480" y="20" width="120" height="50" as="geometry" />
        </mxCell>
        <mxCell id="eFo7KCsxgfK4nvITvgJy-20" value="tms-web" style="rounded=1;whiteSpace=wrap;html=1;" vertex="1" parent="eFo7KCsxgfK4nvITvgJy-15">
          <mxGeometry x="335" y="20" width="120" height="50" as="geometry" />
        </mxCell>
        <mxCell id="eFo7KCsxgfK4nvITvgJy-21" value="..." style="rounded=1;whiteSpace=wrap;html=1;" vertex="1" parent="eFo7KCsxgfK4nvITvgJy-15">
          <mxGeometry x="630" y="20" width="120" height="50" as="geometry" />
        </mxCell>
      </root>
    </mxGraphModel>
  </diagram>
</mxfile>
